<?xml version="1.0" standalone="no"?>
<!DOCTYPE svg PUBLIC "-//W3C//DTD SVG 20010904//EN"
 "http://www.w3.org/TR/2001/REC-SVG-20010904/DTD/svg10.dtd">
<svg version="1.0" xmlns="http://www.w3.org/2000/svg"
 width="1280.000000pt" height="1237.000000pt" viewBox="0 0 1280.000000 1237.000000"
 preserveAspectRatio="xMidYMid meet">
<metadata>
Created by potrace 1.15, written by Peter Selinger 2001-2017
</metadata>
<g transform="translate(0.000000,1237.000000) scale(0.100000,-0.100000)"
fill="#000000" stroke="none">
<path d="M6141 12205 c-209 -46 -416 -162 -587 -329 l-93 -91 -1452 -2900
c-798 -1595 -1572 -3138 -1719 -3430 -147 -291 -685 -1364 -1194 -2382 l-927
-1853 11 -42 c62 -244 236 -437 484 -539 50 -21 136 -47 191 -58 l100 -21
5340 2 5340 3 90 22 c50 12 110 29 134 37 24 9 46 14 48 12 5 -5 -103 -40
-190 -61 -37 -9 -118 -20 -180 -24 l-112 -8 172 -2 c128 -1 172 2 175 11 3 8
33 14 86 16 62 3 82 8 82 18 0 10 13 14 45 14 25 0 45 4 45 10 0 5 11 12 25
16 14 3 25 10 25 15 0 5 8 13 18 16 9 4 23 13 31 21 7 7 20 11 27 8 9 -3 14 2
14 14 0 11 4 20 10 20 5 0 12 11 16 25 3 14 12 25 20 25 9 0 14 11 14 29 0 16
6 31 12 33 9 3 13 31 15 84 l1 79 -17 -40 c-38 -92 -110 -184 -185 -238 -16
-11 7 15 50 59 108 108 154 208 154 337 0 53 -11 81 -126 335 -2168 4754
-3911 8397 -4662 9742 -217 389 -337 566 -482 710 -218 219 -441 321 -692 319
-51 0 -122 -7 -157 -14z m5833 -11540 c-10 -8 -23 -15 -28 -15 -6 0 -1 7 10
15 10 8 23 15 28 15 6 0 1 -7 -10 -15z"/>
<path d="M11793 543 c9 -2 23 -2 30 0 6 3 -1 5 -18 5 -16 0 -22 -2 -12 -5z"/>
</g>
</svg>
